<svg width="64" height="64" viewBox="0 0 64 64" xmlns="http://www.w3.org/2000/svg" role="img" aria-label="Lactis">
  <!-- Cuña de queso: cuerpo -->
  <path d="M6 42
           L45 17
           a5 5 0 0 1 7.4 2.4
           L57 40
           a4 4 0 0 1 -4 4.6
           L11 46
           a5 5 0 0 1 -5 -4 Z"
        fill="#F5B92E"/>
  <!-- Cara superior (corte) más clara -->
  <path d="M6 42
           L45 17
           a5 5 0 0 1 7.4 2.4
           L53 25
           L10 44 Z"
        fill="#FAD35A"/>
  <!-- Corteza en el borde derecho -->
  <path d="M57 40 a4 4 0 0 1 -4 4.6 L49.5 44.8 L52 24.5 Z" fill="#E39B1B"/>
  <!-- Agujeros del queso -->
  <circle cx="24" cy="37" r="3.4" fill="#E39B1B"/>
  <circle cx="37" cy="33.5" r="2.6" fill="#E39B1B"/>
  <circle cx="44" cy="39" r="2.1" fill="#E39B1B"/>
  <circle cx="31" cy="41" r="1.7" fill="#E39B1B"/>
</svg>
